<svg aria-hidden="true" style="position: absolute; width: 0; height: 0; overflow: hidden;" version="1.1" xmlns="http://www.w3.org/2000/svg" xmlns:xlink="http://www.w3.org/1999/xlink">
<defs>
<symbol id="user" viewBox="0 0 32 32">
  <path fill="none" stroke="#2260ff" style="stroke: var(--color1, #2260ff)" stroke-linejoin="miter" stroke-linecap="round" stroke-miterlimit="4" stroke-width="2" d="M22 9c0 4-3 7-7 7s-7-3-7-7 3-7 7-7 7 3 7 7z"></path>
  <path fill="none" stroke="#2260ff" style="stroke: var(--color1, #2260ff)" stroke-linejoin="miter" stroke-linecap="round" stroke-miterlimit="4" stroke-width="2" d="M28 28c0-5-1-9-10-9h-4c-9 0-10 4-10 9 0 1 1 2 2 2h20c1 0 2-1 2-2z"></path>
</symbol>
<symbol id="arrow" viewBox="0 0 32 32">
<path fill="none" stroke="#2260ff" style="stroke: var(--color3, #2260ff)" stroke-linejoin="round" stroke-linecap="round" stroke-miterlimit="4" stroke-width="2.4" d="M9.333 16l4.444-5.333M9.333 16l4.444 5.333M9.333 16h13.333"></path>
</symbol>
<symbol id="cancelled" viewBox="0 0 32 32">
<path fill="none" stroke="#b91c1c" style="stroke: var(--color4, #b91c1c)" stroke-linejoin="round" stroke-linecap="round" stroke-miterlimit="4" stroke-width="3" d="M15.999 12v5.333M15.999 22.666h0.013M14.153 5.189l-10.967 18.942c-0.608 1.051-0.912 1.576-0.867 2.007 0.039 0.376 0.236 0.718 0.542 0.94 0.351 0.255 0.958 0.255 2.172 0.255h21.933c1.214 0 1.821 0 2.172-0.255 0.306-0.222 0.503-0.564 0.542-0.94 0.045-0.431-0.259-0.956-0.867-2.007l-10.966-18.942c-0.606-1.047-0.909-1.57-1.305-1.746-0.345-0.153-0.739-0.153-1.083 0-0.395 0.176-0.698 0.699-1.305 1.746z"></path>
</symbol>
<symbol id="email" viewBox="0 0 32 32">
<path fill="none" stroke="#2260ff" style="stroke: var(--color5, #2260ff)" stroke-linejoin="miter" stroke-linecap="round" stroke-miterlimit="4" stroke-width="2" d="M5.333 8l8 8M26.667 8l-8 8M13.333 16l0.781 0.781c1.041 1.041 2.73 1.041 3.771 0l0.781-0.781M13.333 16l-8.162 8.162M18.667 16l8.162 8.162M26.828 24.162c0.724-0.724 1.172-1.724 1.172-2.828v-12c0-1.473-1.194-2.667-2.667-2.667h-18.667c-1.473 0-2.667 1.194-2.667 2.667v12c0 1.105 0.448 2.105 1.172 2.828M26.828 24.162c-0.724 0.724-1.724 1.172-2.828 1.172h-16c-1.105 0-2.105-0.448-2.828-1.172"></path>
</symbol>
<symbol id="phone" viewBox="0 0 32 32">
<path fill="none" stroke="#2260ff" style="stroke: var(--color1, #2260ff)" stroke-linejoin="miter" stroke-linecap="round" stroke-miterlimit="4" stroke-width="2.1333" d="M18.399 4.871c6.59 0.423 10.802 7.706 8.056 13.933M19.299 8.672c3.1 0.373 5.255 4.099 4.122 7.128M14.481 7.825l-2.571-4.446c-0.289-0.5-0.935-0.671-1.433-0.375-7.498 4.453-8.211 6.595-5.894 10.526l7.193 12.439c2.251 3.969 4.465 4.423 12.077 0.166 0.506-0.283 0.681-0.926 0.391-1.426l-2.571-4.446c-0.375-0.648-0.88-0.616-1.474-0.446s-2.82 1.625-3.631 2.093c-0.811 0.468-6.718-10.121-6.069-10.495s3.187-1.664 3.631-2.093c0.444-0.429 0.725-0.85 0.35-1.498z"></path>
</symbol>
<symbol id="pending" viewBox="0 0 32 32">
<path fill="none" stroke="#79b5ec" style="stroke: var(--color6, #79b5ec)" stroke-linejoin="round" stroke-linecap="round" stroke-miterlimit="4" stroke-width="2" d="M16 16l-5.697-4.748c-0.847-0.705-1.27-1.058-1.574-1.49-0.27-0.383-0.47-0.811-0.591-1.263-0.137-0.511-0.137-1.061-0.137-2.163v-3.669M16 16l5.697-4.748c0.846-0.705 1.27-1.058 1.574-1.49 0.27-0.383 0.47-0.811 0.591-1.263 0.137-0.511 0.137-1.061 0.137-2.163v-3.669M16 16l-5.697 4.748c-0.847 0.705-1.27 1.058-1.574 1.49-0.27 0.383-0.47 0.811-0.591 1.263-0.137 0.511-0.137 1.061-0.137 2.163v3.669M16 16l5.697 4.748c0.846 0.705 1.27 1.058 1.574 1.49 0.27 0.383 0.47 0.811 0.591 1.263 0.137 0.511 0.137 1.061 0.137 2.163v3.669M5.333 2.667h21.333M5.333 29.333h21.333"></path>
</symbol>
<symbol id="upload" viewBox="0 0 35 32">
<path fill="none" stroke="#2260ff" style="stroke: var(--color1, #2260ff)" d="M29.426 15.535c0 0 0.649-8.743-7.361-9.74-6.865-0.701-8.955 5.679-8.955 5.679s-2.067-1.988-4.872-0.364c-2.511 1.55-2.067 4.388-2.067 4.388s-5.576 1.084-5.576 6.768c0.124 5.677 6.054 5.734 6.054 5.734h9.351v-6h-3l5-5 5 5h-3v6h8.467c0 0 5.52 0.006 6.295-5.395 0.369-5.906-5.336-7.070-5.336-7.070z"></path>
</symbol>
<symbol id="schedule" viewBox="0 0 32 32">
<path fill="#2260ff" style="fill: var(--color1, #2260ff)" d="M28 30h-24c-1.104 0-2-0.896-2-2v-21c0-1.104 0.896-2 2-2h2v1c0 1.657 1.343 3 3 3s3-1.343 3-3v-1h8v1c0 1.657 1.344 3 3 3s3-1.343 3-3v-1h2c1.104 0 2 0.896 2 2v21c0 1.104-0.896 2-2 2zM28 12h-24v16h24v-16zM13.069 19.829c0.197-0.314 0.296-0.646 0.296-0.993 0-0.773-0.416-1.16-1.248-1.16-0.723 0-1.414 0.287-2.074 0.861v-1.629c0.73-0.473 1.555-0.709 2.473-0.709 0.859 0 1.53 0.216 2.013 0.647s0.724 1.015 0.724 1.749c0 0.98-0.588 1.994-1.764 3.041l-1.729 1.535v0.035h3.41v1.535h-5.531v-1.441l2.408-2.303c0.484-0.464 0.825-0.853 1.022-1.168zM19.837 23.166c0.264-0.203 0.396-0.486 0.396-0.85 0-0.375-0.163-0.664-0.489-0.867s-0.774-0.305-1.345-0.305h-0.756v-1.418h0.697c1.094 0 1.641-0.363 1.641-1.090 0-0.684-0.42-1.025-1.26-1.025-0.562 0-1.109 0.182-1.641 0.545v-1.512c0.59-0.297 1.277-0.445 2.062-0.445 0.859 0 1.528 0.193 2.007 0.58s0.718 0.889 0.718 1.506c0 1.098-0.557 1.785-1.67 2.062v0.029c0.594 0.074 1.062 0.29 1.406 0.647s0.516 0.796 0.516 1.315c0 0.785-0.287 1.406-0.861 1.863s-1.367 0.686-2.379 0.686c-0.867 0-1.572-0.141-2.115-0.422v-1.611c0.562 0.41 1.219 0.615 1.969 0.615 0.472 0.002 0.84-0.1 1.104-0.303zM22.969 8c-1.088 0-1.969-0.881-1.969-1.969v-2.062c0-1.088 0.881-1.969 1.969-1.969s1.969 0.881 1.969 1.969v2.062c0 1.088-0.881 1.969-1.969 1.969zM8.969 8c-1.088 0-1.969-0.881-1.969-1.969v-2.062c0-1.088 0.881-1.969 1.969-1.969s1.969 0.881 1.969 1.969v2.062c0 1.088-0.882 1.969-1.969 1.969z"></path>
</symbol>
<symbol id="home" viewBox="0 0 32 32">
<path fill="#2260ff" style="fill: var(--color1, #2260ff)" d="M5.333 12.667l-4.667 4.667h3.333v12h9.333v-8h5.333v8h9.333v-12h3.333l-15.333-15.333-5.333 5.333v-3.333h-5.333zM6.667 5.333h2.667v5.219l6.667-6.667 12.115 12.115h-1.448v12h-6.667v-8h-8v8h-6.667v-12h-1.448l2.781-2.781z"></path>
</symbol>
<symbol id="job" viewBox="0 0 32 32">
<path fill="#2260ff" style="fill: var(--color1, #2260ff)" d="M12.8 1.92c-1.053 0-1.92 0.868-1.92 1.92v1.92h-8.96c-1.052 0-1.92 0.867-1.92 1.92v9.48c-0.005 0.040-0.005 0.080 0 0.12v10.88c0 1.052 0.868 1.92 1.92 1.92h28.16c1.052 0 1.92-0.867 1.92-1.92v-20.48c0-1.053-0.867-1.92-1.92-1.92h-8.96v-1.92c0-1.053-0.867-1.92-1.92-1.92zM12.8 3.2h6.4c0.36 0 0.64 0.28 0.64 0.64v1.92h-7.68v-1.92c0-0.36 0.28-0.64 0.64-0.64zM1.92 7.040h28.16c0.36 0 0.64 0.28 0.64 0.64v9.5c0 0.020 0 0.040 0 0.060v0.040c0 0.36-0.28 0.64-0.64 0.64h-28.16c-0.36 0-0.64-0.28-0.64-0.64 0.005-0.040 0.005-0.080 0-0.12v-9.48c0-0.36 0.28-0.64 0.64-0.64zM16 14.080c-0.707 0-1.28 0.572-1.28 1.28s0.572 1.28 1.28 1.28c0.707 0 1.28-0.573 1.28-1.28s-0.573-1.28-1.28-1.28zM1.28 19.080c0.202 0.073 0.415 0.12 0.64 0.12h28.16c0.225 0 0.438-0.047 0.64-0.12v9.080c0 0.36-0.28 0.64-0.64 0.64h-28.16c-0.36 0-0.64-0.28-0.64-0.64z"></path>
</symbol>
<symbol id="policy" viewBox="0 0 32 32">
<path fill="#2260ff" style="fill: var(--color1, #2260ff)" d="M19.5 3h0.5l6 7v18.009c0 1.093-0.894 1.991-1.997 1.991h-15.005c-1.107 0-1.997-0.899-1.997-2.007v-22.985c0-1.109 0.897-2.007 2.003-2.007h10.497zM19 4h-10.004c-0.55 0-0.996 0.455-0.996 0.995v23.009c0 0.55 0.455 0.995 1 0.995h15c0.552 0 1-0.445 1-0.993v-17.007h-4.002c-1.103 0-1.998-0.887-1.998-2.006v-4.994zM20 4.5v4.491c0 0.557 0.451 1.009 0.997 1.009h3.703l-4.7-5.5zM10 10v1h5v-1h-5zM10 7v1h7v-1h-7zM10 13v1h13v-1h-13zM10 16v1h10v-1h-10zM10 19v1h13v-1h-13zM10 22v1h9v-1h-9zM10 25v1h13v-1h-13z"></path>
</symbol>
<symbol id="pil" viewBox="0 0 32 32">
<path fill="#2260ff" style="fill: var(--color1, #2260ff)" d="M5.601 18.621c-1.952 1.953-1.952 5.119 0 7.072l0.708 0.707c1.952 1.951 5.118 1.951 7.071 0l5.656-5.658-7.778-7.778-5.657 5.657zM12.672 25.693c-1.562 1.562-4.095 1.562-5.656 0l-0.707-0.707c-1.562-1.562-1.562-4.096 0-5.658l4.949-4.949 6.364 6.363-4.95 4.951zM25.4 7.308l-0.707-0.707c-1.952-1.953-5.118-1.953-7.071 0l-5.657 5.656 7.778 7.778 5.657-5.656c1.953-1.953 1.953-5.119 0-7.071z"></path>
</symbol>
</defs>
</svg>
