<svg aria-hidden="true" style="position: absolute; width: 0; height: 0; overflow: hidden;" version="1.1" xmlns="http://www.w3.org/2000/svg" xmlns:xlink="http://www.w3.org/1999/xlink">
<defs>
<symbol id="user" viewBox="0 0 29 32">
<path fill="none" stroke="#2260ff" style="stroke: var(--color1, #2260ff)" stroke-linejoin="miter" stroke-linecap="round" stroke-miterlimit="4" stroke-width="2.7826" d="M21.943 8.544c0.45 4.272-2.6 8.006-6.811 8.34s-7.99-2.857-8.44-7.129 2.6-8.006 6.811-8.34c4.211-0.335 7.99 2.857 8.44 7.129z"></path>
<path fill="none" stroke="#2260ff" style="stroke: var(--color1, #2260ff)" stroke-linejoin="miter" stroke-linecap="round" stroke-miterlimit="4" stroke-width="2.7826" d="M27.826 29.131c0-4.433-0.755-8.865-9.063-8.865h-8.686c-5.665 0-8.686 1.847-8.686 8.865 0 0.816 0.676 1.478 1.51 1.478h23.414c0.834 0 1.511-0.662 1.511-1.478z"></path>
</symbol>
<symbol id="options" viewBox="0 0 32 32">
<path fill="#fff" style="fill: var(--color2, #fff)" d="M32 16c0 8.837-7.163 16-16 16s-16-7.163-16-16c0-8.837 7.163-16 16-16s16 7.163 16 16z"></path>
<path fill="none" stroke="#000" style="stroke: var(--color3, #000)" stroke-linejoin="round" stroke-linecap="round" stroke-miterlimit="4" stroke-width="1.2308" d="M14.769 13.538h9.846M14.769 13.538c0 1.36-1.102 2.462-2.462 2.462s-2.462-1.102-2.462-2.462M14.769 13.538c0-1.359-1.102-2.462-2.462-2.462s-2.462 1.102-2.462 2.462M7.385 13.538h2.462M20.923 19.692h3.692M20.923 19.692c0 1.36-1.102 2.462-2.462 2.462s-2.462-1.102-2.462-2.462M20.923 19.692c0-1.36-1.102-2.462-2.462-2.462s-2.462 1.102-2.462 2.462M7.385 19.692h8.615"></path>
</symbol>
<symbol id="check" viewBox="0 0 32 32">
<path fill="#fff" style="fill: var(--color2, #fff)" d="M29.412 14.706c0 8.122-6.584 14.706-14.706 14.706s-14.706-6.584-14.706-14.706c0-8.122 6.584-14.706 14.706-14.706s14.706 6.584 14.706 14.706z"></path>
<path fill="none" stroke="#2260ff" style="stroke: var(--color1, #2260ff)" stroke-linejoin="round" stroke-linecap="round" stroke-miterlimit="4" stroke-width="2.6667" d="M8 16.017l3.539 4.428 9.498-9.778"></path>
</symbol>
<symbol id="close" viewBox="0 0 32 32">
<path fill="#fff" style="fill: var(--color2, #fff)" d="M29.412 14.706c0 8.122-6.584 14.706-14.706 14.706s-14.706-6.584-14.706-14.706c0-8.122 6.584-14.706 14.706-14.706s14.706 6.584 14.706 14.706z"></path>
<path fill="none" stroke="#2260ff" style="stroke: var(--color1, #2260ff)" stroke-linejoin="round" stroke-linecap="round" stroke-miterlimit="4" stroke-width="2.6667" d="M9.944 19.608l9.524-9.804"></path>
<path fill="none" stroke="#2260ff" style="stroke: var(--color1, #2260ff)" stroke-linejoin="round" stroke-linecap="round" stroke-miterlimit="4" stroke-width="2.6667" d="M9.804 9.944l9.804 9.524"></path>
</symbol>
<symbol id="user-outline" viewBox="0 0 32 32">
<path fill="#cad6ff" style="fill: var(--color4, #cad6ff)" d="M32 16c0 8.837-7.163 16-16 16s-16-7.163-16-16c0-8.837 7.163-16 16-16s16 7.163 16 16z"></path>
<path fill="none" stroke="#2260ff" style="stroke: var(--color1, #2260ff)" stroke-linejoin="miter" stroke-linecap="round" stroke-miterlimit="4" stroke-width="1.6" d="M20.397 11.147c0.246 2.562-1.424 4.802-3.73 5.002s-4.376-1.714-4.622-4.276c-0.246-2.562 1.424-4.802 3.73-5.002s4.376 1.714 4.622 4.276z"></path>
<path fill="none" stroke="#2260ff" style="stroke: var(--color1, #2260ff)" stroke-linejoin="miter" stroke-linecap="round" stroke-miterlimit="4" stroke-width="1.6" d="M23.619 23.495c0-2.659-0.414-5.317-4.963-5.317h-4.756c-3.102 0-4.756 1.108-4.756 5.317 0 0.489 0.37 0.886 0.827 0.886h12.822c0.457 0 0.827-0.397 0.827-0.886z"></path>
</symbol>
<symbol id="reviews" viewBox="0 0 32 32">
<path fill="none" stroke="#2260ff" style="stroke: var(--color1, #2260ff)" stroke-linejoin="round" stroke-linecap="round" stroke-miterlimit="4" stroke-width="2.6667" d="M9.898 16h0.226M15.774 16h0.226M21.65 16h0.226M29.333 15.697c0 2.925-0.986 5.625-2.652 7.8l2.201 5.23c0.105 0.343-0.204 0.671-0.561 0.595l-5.985-2.158c-1.885 0.997-4.043 1.563-6.337 1.563-7.364 0-13.333-5.834-13.333-13.030s5.969-13.030 13.333-13.030c7.364 0 13.333 5.834 13.333 13.030z"></path>
</symbol>
<symbol id="star" viewBox="0 0 32 32">
<path fill="none" stroke="#2260ff" style="stroke: var(--color1, #2260ff)" stroke-linejoin="miter" stroke-linecap="butt" stroke-miterlimit="4" stroke-width="2.4615" d="M16 4.923l3.255 7.827 8.45 0.677-6.438 5.515 1.967 8.246-7.234-4.419-7.234 4.419 1.967-8.246-6.438-5.515 8.45-0.677 3.255-7.827z"></path>
</symbol>
<symbol id="search" viewBox="0 0 32 32">
<path fill="#2260ff" style="fill: var(--color1, #2260ff)" d="M14.328 18.421c0.265-0.353 0.194-0.855-0.159-1.12s-0.855-0.194-1.12 0.16l1.28 0.961zM10.583 20.746c-0.265 0.353-0.194 0.855 0.159 1.12s0.855 0.194 1.12-0.16l-1.28-0.96zM9.113 18.55c-0.347-0.273-0.85-0.213-1.123 0.134s-0.213 0.85 0.134 1.123l0.989-1.258zM13.53 24.058c0.347 0.273 0.85 0.213 1.123-0.135s0.213-0.85-0.134-1.123l-0.989 1.258zM7.82 29.548v0zM4.441 26.892v0zM4.833 29.949v0zM25.534 15.649c-2.702 3.599-7.729 4.268-11.236 1.511l-0.989 1.258c4.22 3.318 10.27 2.502 13.505-1.808l-1.28-0.961zM14.297 17.16c-3.518-2.766-4.186-7.941-1.476-11.551l-1.28-0.961c-3.227 4.298-2.442 10.46 1.767 13.769l0.989-1.258zM12.821 5.609c2.702-3.599 7.729-4.268 11.236-1.511l0.989-1.258c-4.22-3.318-10.27-2.502-13.505 1.808l1.28 0.961zM24.058 4.098c3.519 2.766 4.186 7.941 1.476 11.551l1.28 0.961c3.227-4.298 2.442-10.46-1.767-13.769l-0.989 1.258zM13.049 17.461l-2.466 3.285 1.28 0.96 2.466-3.285-1.28-0.961zM8.124 19.808l5.406 4.25 0.989-1.258-5.406-4.25-0.989 1.258zM12.371 22.152l-5.191 6.916 1.28 0.96 5.191-6.916-1.28-0.96zM5.081 27.372l5.191-6.915-1.28-0.961-5.191 6.916 1.28 0.96zM5.327 29.32c-0.588-0.462-0.704-1.337-0.246-1.948l-1.28-0.96c-0.975 1.299-0.741 3.161 0.537 4.166l0.989-1.258zM7.18 29.068c-0.45 0.6-1.276 0.705-1.853 0.252l-0.989 1.258c1.29 1.014 3.138 0.761 4.121-0.549l-1.28-0.96z"></path>
</symbol>
<symbol id="doctors" viewBox="0 0 32 32">
<path fill="#2260ff" style="fill: var(--color1, #2260ff)" d="M19.152 31.717c0.442 0 0.8-0.358 0.8-0.8s-0.358-0.8-0.8-0.8v1.6zM12.262 24.674h-0.8c0 0.025 0.001 0.050 0.004 0.075l0.796-0.075zM19.143 30.117c-0.442 0-0.8 0.358-0.8 0.8s0.358 0.8 0.8 0.8v-1.6zM26.033 24.674v0zM26.833 19.317c0-0.442-0.358-0.8-0.8-0.8s-0.8 0.358-0.8 0.8h1.6zM13.062 20.507c0-0.442-0.358-0.8-0.8-0.8s-0.8 0.358-0.8 0.8h1.6zM20.131 6.055h0.8c0-0.016-0-0.033-0.002-0.049l-0.798 0.049zM12.066 20.517v0zM17.539 2.917c-0.442 0-0.8 0.358-0.8 0.8s0.358 0.8 0.8 0.8v-1.6zM4 6.055l-0.798-0.049c-0.001 0.016-0.002 0.033-0.002 0.049h0.8zM6.593 4.517c0.442 0 0.8-0.358 0.8-0.8s-0.358-0.8-0.8-0.8v1.6zM19.152 30.117h-0.004v1.6h0.004v-1.6zM19.148 30.117c-3.216-0.002-5.832-2.775-6.089-5.518l-1.593 0.149c0.328 3.498 3.575 6.966 7.681 6.968l0.001-1.6zM19.143 31.717h0.004v-1.6h-0.004v1.6zM19.148 31.717c4.018-0.003 7.685-3.103 7.685-7.043h-1.6c0 2.896-2.782 5.441-6.086 5.443l0.001 1.6zM26.833 24.674v-5.357h-1.6v5.357h1.6zM13.062 24.674v-4.167h-1.6v4.167h1.6zM19.331 6.055v6.282h1.6v-6.282h-1.6zM19.331 12.336c0 4.087-3.264 7.381-7.266 7.381v1.6c4.907 0 8.866-4.032 8.866-8.981h-1.6zM20.93 6.005c-0.032-0.526-0.237-1.279-0.758-1.917-0.547-0.671-1.41-1.171-2.633-1.171v1.6c0.736 0 1.146 0.279 1.393 0.582 0.273 0.335 0.386 0.751 0.401 1.004l1.597-0.098zM3.2 6.055v6.282h1.6v-6.282h-1.6zM3.2 12.336c0 4.949 3.959 8.981 8.866 8.981v-1.6c-4.002 0-7.266-3.294-7.266-7.381h-1.6zM4.798 6.104c0.016-0.253 0.128-0.669 0.401-1.004 0.247-0.303 0.657-0.582 1.393-0.582v-1.6c-1.223 0-2.085 0.5-2.633 1.171-0.521 0.639-0.726 1.392-0.758 1.917l1.597 0.098zM8.708 3.517c0 0.344-0.271 0.6-0.577 0.6v1.6c1.215 0 2.177-0.998 2.177-2.2h-1.6zM8.131 4.117c-0.306 0-0.577-0.256-0.577-0.6h-1.6c0 1.203 0.962 2.2 2.177 2.2v-1.6zM7.554 3.517c0-0.344 0.271-0.6 0.577-0.6v-1.6c-1.215 0-2.177 0.998-2.177 2.2h1.6zM8.131 2.917c0.306 0 0.577 0.256 0.577 0.6h1.6c0-1.203-0.962-2.2-2.177-2.2v1.6zM16.577 3.517c0 0.344-0.271 0.6-0.577 0.6v1.6c1.215 0 2.177-0.998 2.177-2.2h-1.6zM16 4.117c-0.306 0-0.577-0.256-0.577-0.6h-1.6c0 1.203 0.962 2.2 2.177 2.2v-1.6zM15.423 3.517c0-0.344 0.271-0.6 0.577-0.6v-1.6c-1.215 0-2.177 0.998-2.177 2.2h1.6zM16 2.917c0.306 0 0.577 0.256 0.577 0.6h1.6c0-1.203-0.962-2.2-2.177-2.2v1.6zM27.2 17.117c0 0.786-0.623 1.4-1.364 1.4v1.6c1.649 0 2.964-1.356 2.964-3h-1.6zM25.836 18.517c-0.741 0-1.364-0.614-1.364-1.4h-1.6c0 1.644 1.315 3 2.964 3v-1.6zM24.472 17.117c0-0.786 0.623-1.4 1.364-1.4v-1.6c-1.649 0-2.964 1.356-2.964 3h1.6zM25.836 15.717c0.741 0 1.364 0.614 1.364 1.4h1.6c0-1.644-1.315-3-2.964-3v1.6z"></path>
</symbol>
<symbol id="like" viewBox="0 0 32 32">
<path fill="none" stroke="#2260ff" style="stroke: var(--color1, #2260ff)" stroke-linejoin="miter" stroke-linecap="round" stroke-miterlimit="4" stroke-width="1.6842" d="M3.781 5.536c2.795-2.89 7.327-2.89 10.123 0l2.097 2.167 2.096-2.167c2.795-2.89 7.328-2.89 10.123 0s2.795 7.575 0 10.464l-12.219 12.632-12.219-12.632c-2.795-2.89-2.795-7.575 0-10.464z"></path>
</symbol>
<symbol id="bell" viewBox="0 0 32 32">
<path d="M12.158 5.154c0 0.465 0.377 0.842 0.842 0.842s0.842-0.377 0.842-0.842h-1.684zM17.881 5.154c0 0.465 0.377 0.842 0.842 0.842s0.842-0.377 0.842-0.842h-1.684zM25.086 18.727v0zM27.77 23.536v0zM15.994 3.872c-0.465 0-0.842 0.377-0.842 0.842s0.377 0.842 0.842 0.842v-1.684zM24.787 12.256v0zM6.914 18.727v0zM4.23 23.536v0zM16.006 5.556c0.465 0 0.842-0.377 0.842-0.842s-0.377-0.842-0.842-0.842v1.684zM7.213 12.256v0zM19.598 25.514v0.436h1.684v-0.436h-1.684zM12.289 25.95v-0.436h-1.684v0.436h1.684zM15.943 29.474c-2.042 0-3.655-1.601-3.655-3.524h-1.684c0 2.9 2.414 5.208 5.339 5.208v-1.684zM19.598 25.95c0 1.923-1.613 3.524-3.655 3.524v1.684c2.925 0 5.339-2.309 5.339-5.208h-1.684zM13.842 5.154c0-0.953 0.273-1.609 0.629-2.014 0.351-0.4 0.832-0.614 1.391-0.614v-1.684c-1.022 0-1.971 0.407-2.656 1.187-0.68 0.773-1.048 1.853-1.048 3.126h1.684zM15.861 2.526c0.559 0 1.040 0.215 1.391 0.614 0.356 0.405 0.629 1.061 0.629 2.014h1.684c0-1.273-0.368-2.352-1.048-3.126-0.685-0.779-1.634-1.187-2.656-1.187v1.684zM24.439 19.267c0.177 0.211 0.448 0.458 0.645 0.65 0.224 0.219 0.462 0.468 0.696 0.779 0.458 0.612 0.934 1.518 1.158 2.968l1.665-0.258c-0.267-1.726-0.853-2.889-1.474-3.72-0.306-0.41-0.612-0.726-0.867-0.975-0.282-0.276-0.425-0.401-0.529-0.526l-1.292 1.080zM15.994 5.556c0.002 0 0.003 0 0.005 0l0.001-1.684c-0.002 0-0.004 0-0.006 0v1.684zM15.999 5.556c4.243 0.003 7.62 3.447 7.95 6.782l1.676-0.166c-0.416-4.203-4.523-8.297-9.625-8.301l-0.001 1.684zM23.949 12.339c0.18 1.815 0.092 3.176 0.037 4.225-0.027 0.511-0.050 1.002-0.014 1.419 0.036 0.421 0.139 0.892 0.467 1.284l1.292-1.080c-0.004-0.005-0.057-0.070-0.081-0.347-0.024-0.281-0.010-0.651 0.018-1.187 0.055-1.046 0.15-2.523-0.043-4.479l-1.676 0.166zM6.268 18.187c-0.104 0.124-0.247 0.249-0.529 0.526-0.255 0.249-0.561 0.565-0.867 0.975-0.621 0.83-1.207 1.994-1.474 3.72l1.664 0.258c0.224-1.45 0.7-2.356 1.158-2.968 0.233-0.312 0.471-0.56 0.696-0.779 0.197-0.192 0.468-0.439 0.644-0.65l-1.292-1.080zM16.006 3.872c-0.002 0-0.004 0-0.006 0l0.001 1.684c0.002 0 0.003 0 0.005 0v-1.684zM15.999 3.872c-5.102 0.003-9.209 4.098-9.625 8.301l1.676 0.166c0.33-3.336 3.707-6.78 7.95-6.782l-0.001-1.684zM6.375 12.173c-0.194 1.956-0.098 3.433-0.043 4.479 0.028 0.537 0.042 0.907 0.018 1.187-0.024 0.278-0.077 0.342-0.081 0.347l1.292 1.080c0.327-0.392 0.431-0.863 0.467-1.284 0.036-0.418 0.013-0.909-0.014-1.419-0.055-1.048-0.142-2.41 0.037-4.225l-1.676-0.166zM6.132 26.356h19.736v-1.684h-19.736v1.684zM3.398 23.407c-0.265 1.712 1.216 2.949 2.734 2.949v-1.684c-0.74 0-1.141-0.552-1.070-1.008l-1.664-0.258zM26.938 23.664c0.071 0.455-0.33 1.008-1.070 1.008v1.684c1.518 0 2.999-1.237 2.734-2.949l-1.665 0.258z"></path>
</symbol>
<symbol id="settings" viewBox="0 0 32 32">
<path d="M13.058 1.684v-0.842c-0.465 0-0.842 0.377-0.842 0.842h0.842zM18.942 1.684h0.842c0-0.465-0.377-0.842-0.842-0.842v0.842zM18.942 30.316v0.842c0.465 0 0.842-0.377 0.842-0.842h-0.842zM13.058 30.316h-0.842c0 0.465 0.377 0.842 0.842 0.842v-0.842zM30.316 13.058h0.842c0-0.465-0.377-0.842-0.842-0.842v0.842zM30.316 18.942v0.842c0.223 0 0.438-0.089 0.596-0.247s0.247-0.372 0.247-0.595h-0.842zM1.684 18.942h-0.842c0 0.465 0.377 0.842 0.842 0.842v-0.842zM1.684 13.058v-0.842c-0.223 0-0.438 0.089-0.595 0.247s-0.247 0.372-0.247 0.595h0.842zM24.043 3.797l0.595-0.595c-0.327-0.328-0.858-0.329-1.187-0.003l0.592 0.599zM28.203 7.957l0.599 0.592c0.326-0.329 0.324-0.86-0.003-1.188l-0.596 0.595zM7.957 28.203l-0.595 0.596c0.328 0.328 0.858 0.329 1.188 0.003l-0.592-0.599zM3.797 24.043l-0.599-0.592c-0.326 0.329-0.325 0.86 0.003 1.188l0.595-0.595zM28.203 24.043l0.596 0.595c0.325-0.324 0.329-0.849 0.011-1.18l-0.606 0.584zM24.043 28.203l-0.6 0.59c0.157 0.16 0.372 0.251 0.597 0.252s0.44-0.088 0.599-0.247l-0.595-0.596zM3.797 7.957l-0.595-0.595c-0.158 0.158-0.247 0.372-0.247 0.595s0.089 0.438 0.247 0.595l0.595-0.595zM7.957 3.797l0.595-0.595c-0.329-0.329-0.862-0.329-1.191 0l0.595 0.595zM25.489 18.942v-0.842h-0.605l-0.193 0.573 0.798 0.269zM24.8 20.51l-0.739-0.405-0.298 0.543 0.43 0.446 0.606-0.584zM20.51 24.612l0.6-0.59-0.426-0.433-0.545 0.268 0.371 0.756zM18.942 25.22l-0.235-0.809-0.607 0.177v0.632h0.842zM13.058 25.096h0.842v-0.604l-0.573-0.193-0.269 0.798zM11.686 24.512l0.388-0.747-0.544-0.282-0.436 0.431 0.592 0.599zM7.487 20.314l0.598 0.593 0.431-0.436-0.283-0.544-0.747 0.388zM6.904 18.942l0.798-0.269-0.193-0.573h-0.605v0.842zM6.78 13.058v0.842h0.632l0.177-0.607-0.809-0.235zM7.369 11.529l0.758 0.368 0.262-0.539-0.424-0.424-0.595 0.595zM11.406 7.246l-0.595 0.595 0.451 0.451 0.556-0.312-0.412-0.734zM13.058 6.511l0.269 0.798 0.573-0.193v-0.605h-0.842zM18.942 6.388h-0.842v0.632l0.607 0.177 0.235-0.809zM20.707 7.095l-0.388 0.747 0.544 0.282 0.436-0.431-0.592-0.599zM24.905 11.293l-0.599-0.592-0.431 0.436 0.282 0.544 0.747-0.388zM25.612 13.058l-0.809 0.235 0.177 0.607h0.632v-0.842zM13.058 2.526h5.883v-1.684h-5.883v1.684zM18.942 29.474h-5.883v1.684h5.883v-1.684zM29.474 13.058v5.883h1.684v-5.883h-1.684zM2.526 18.942v-5.883h-1.684v5.883h1.684zM23.447 4.393l4.16 4.16 1.191-1.191-4.16-4.16-1.191 1.191zM8.553 27.607l-4.16-4.16-1.191 1.191 4.16 4.16 1.191-1.191zM27.607 23.447l-4.16 4.16 1.191 1.191 4.16-4.16-1.191-1.191zM4.393 8.553l4.16-4.16-1.191-1.191-4.16 4.16 1.191 1.191zM24.691 18.672c-0.168 0.499-0.38 0.978-0.629 1.433l1.477 0.81c0.297-0.541 0.548-1.111 0.748-1.704l-1.596-0.539zM20.139 23.855c-0.457 0.224-0.936 0.411-1.433 0.556l0.471 1.617c0.591-0.172 1.161-0.394 1.705-0.661l-0.742-1.512zM13.328 24.299c-0.434-0.147-0.853-0.325-1.254-0.534l-0.776 1.495c0.477 0.248 0.975 0.46 1.491 0.634l0.539-1.596zM8.235 19.926c-0.208-0.401-0.387-0.82-0.534-1.254l-1.596 0.539c0.174 0.516 0.387 1.014 0.634 1.491l1.495-0.776zM7.589 13.294c0.141-0.484 0.321-0.951 0.538-1.397l-1.515-0.735c-0.257 0.531-0.472 1.086-0.64 1.661l1.617 0.471zM11.818 7.981c0.478-0.268 0.983-0.494 1.51-0.671l-0.539-1.596c-0.627 0.212-1.227 0.48-1.795 0.798l0.824 1.469zM18.706 7.197c0.562 0.164 1.102 0.381 1.612 0.646l0.776-1.495c-0.607-0.315-1.249-0.574-1.917-0.768l-0.471 1.617zM24.157 11.681c0.265 0.511 0.482 1.050 0.646 1.612l1.617-0.471c-0.195-0.669-0.453-1.31-0.768-1.918l-1.495 0.776zM13.9 6.511v-4.827h-1.684v4.827h1.684zM18.1 1.684v4.704h1.684v-4.704h-1.684zM7.362 4.393l3.449 3.449 1.191-1.191-3.449-3.449-1.191 1.191zM7.965 10.934l-3.572-3.572-1.191 1.191 3.572 3.572 1.191-1.191zM21.299 7.694l3.336-3.298-1.184-1.198-3.336 3.298 1.184 1.198zM27.604 7.365l-3.298 3.336 1.198 1.184 3.298-3.336-1.198-1.184zM25.612 13.9h4.704v-1.684h-4.704v1.684zM30.316 18.1h-4.827v1.684h4.827v-1.684zM24.194 21.095l3.403 3.532 1.213-1.169-3.403-3.532-1.213 1.169zM24.643 27.612l-3.532-3.591-1.201 1.181 3.532 3.591 1.201-1.181zM18.1 25.22v5.096h1.684v-5.096h-1.684zM13.9 30.316v-5.219h-1.684v5.219h1.684zM11.093 23.914l-3.728 3.69 1.185 1.197 3.728-3.69-1.185-1.197zM4.396 24.635l3.69-3.728-1.197-1.185-3.69 3.729 1.197 1.185zM6.904 18.1h-5.219v1.684h5.219v-1.684zM1.684 13.9h5.096v-1.684h-5.096v1.684zM19.238 15.3c0.362 1.81-0.803 3.511-2.595 3.82l0.286 1.66c2.737-0.472 4.506-3.083 3.96-5.811l-1.652 0.33zM16.643 19.121c-1.809 0.312-3.587-0.909-3.952-2.736l-1.651 0.33c0.543 2.711 3.171 4.535 5.89 4.065l-0.286-1.66zM12.691 16.385c-0.362-1.81 0.803-3.511 2.595-3.82l-0.286-1.66c-2.737 0.472-4.506 3.083-3.96 5.811l1.651-0.33zM15.285 12.564c1.809-0.312 3.587 0.909 3.952 2.736l1.652-0.33c-0.542-2.711-3.171-4.534-5.89-4.065l0.286 1.66z"></path>
</symbol>
</defs>
</svg>
